<svg id="visual" viewBox="0 0 1200 450" width="1200" height="450" xmlns="http://www.w3.org/2000/svg" xmlns:xlink="http://www.w3.org/1999/xlink" version="1.1"><rect x="0" y="0" width="1200" height="450" fill="#72ddb3"></rect><path d="M0 157L28.5 166.5C57 176 114 195 171.2 201.5C228.3 208 285.7 202 342.8 198.2C400 194.3 457 192.7 514.2 178.5C571.3 164.3 628.7 137.7 685.8 125.5C743 113.3 800 115.7 857.2 115.8C914.3 116 971.7 114 1028.8 112.8C1086 111.7 1143 111.3 1171.5 111.2L1200 111L1200 451L1171.5 451C1143 451 1086 451 1028.8 451C971.7 451 914.3 451 857.2 451C800 451 743 451 685.8 451C628.7 451 571.3 451 514.2 451C457 451 400 451 342.8 451C285.7 451 228.3 451 171.2 451C114 451 57 451 28.5 451L0 451Z" fill="#2fb195"></path><path d="M0 202L28.5 198.5C57 195 114 188 171.2 177.7C228.3 167.3 285.7 153.7 342.8 165.8C400 178 457 216 514.2 231.7C571.3 247.3 628.7 240.7 685.8 224.2C743 207.7 800 181.3 857.2 165C914.3 148.7 971.7 142.3 1028.8 148C1086 153.7 1143 171.3 1171.5 180.2L1200 189L1200 451L1171.5 451C1143 451 1086 451 1028.8 451C971.7 451 914.3 451 857.2 451C800 451 743 451 685.8 451C628.7 451 571.3 451 514.2 451C457 451 400 451 342.8 451C285.7 451 228.3 451 171.2 451C114 451 57 451 28.5 451L0 451Z" fill="#009aa0"></path><path d="M0 225L28.5 228C57 231 114 237 171.2 246.5C228.3 256 285.7 269 342.8 265.2C400 261.3 457 240.7 514.2 240.8C571.3 241 628.7 262 685.8 256.5C743 251 800 219 857.2 217.5C914.3 216 971.7 245 1028.8 251C1086 257 1143 240 1171.5 231.5L1200 223L1200 451L1171.5 451C1143 451 1086 451 1028.8 451C971.7 451 914.3 451 857.2 451C800 451 743 451 685.8 451C628.7 451 571.3 451 514.2 451C457 451 400 451 342.8 451C285.7 451 228.3 451 171.2 451C114 451 57 451 28.5 451L0 451Z" fill="#00809d"></path><path d="M0 282L28.5 277.2C57 272.3 114 262.7 171.2 258C228.3 253.3 285.7 253.7 342.8 267.2C400 280.7 457 307.3 514.2 308.8C571.3 310.3 628.7 286.7 685.8 279.7C743 272.7 800 282.3 857.2 288.3C914.3 294.3 971.7 296.7 1028.8 293.2C1086 289.7 1143 280.3 1171.5 275.7L1200 271L1200 451L1171.5 451C1143 451 1086 451 1028.8 451C971.7 451 914.3 451 857.2 451C800 451 743 451 685.8 451C628.7 451 571.3 451 514.2 451C457 451 400 451 342.8 451C285.7 451 228.3 451 171.2 451C114 451 57 451 28.5 451L0 451Z" fill="#006690"></path><path d="M0 362L28.5 358C57 354 114 346 171.2 337.3C228.3 328.7 285.7 319.3 342.8 316.5C400 313.7 457 317.3 514.2 317C571.3 316.7 628.7 312.3 685.8 313.7C743 315 800 322 857.2 333C914.3 344 971.7 359 1028.8 362.2C1086 365.3 1143 356.7 1171.5 352.3L1200 348L1200 451L1171.5 451C1143 451 1086 451 1028.8 451C971.7 451 914.3 451 857.2 451C800 451 743 451 685.8 451C628.7 451 571.3 451 514.2 451C457 451 400 451 342.8 451C285.7 451 228.3 451 171.2 451C114 451 57 451 28.5 451L0 451Z" fill="#004a7e"></path><path d="M0 363L28.5 363.8C57 364.7 114 366.3 171.2 367C228.3 367.7 285.7 367.3 342.8 368.7C400 370 457 373 514.2 376C571.3 379 628.7 382 685.8 378.8C743 375.7 800 366.3 857.2 362.7C914.3 359 971.7 361 1028.8 370.2C1086 379.3 1143 395.7 1171.5 403.8L1200 412L1200 451L1171.5 451C1143 451 1086 451 1028.8 451C971.7 451 914.3 451 857.2 451C800 451 743 451 685.8 451C628.7 451 571.3 451 514.2 451C457 451 400 451 342.8 451C285.7 451 228.3 451 171.2 451C114 451 57 451 28.5 451L0 451Z" fill="#092f68"></path></svg>